<mxfile host="app.diagrams.net" modified="2021-07-24T00:47:57.092Z" agent="5.0 (Windows NT 10.0; Win64; x64) AppleWebKit/537.36 (KHTML, like Gecko) Chrome/92.0.4515.107 Safari/537.36 Edg/92.0.902.55" etag="zGBESDqNmPsLgw_Ic92U" version="14.9.2" type="github">
  <diagram id="R2lEEEUBdFMjLlhIrx00" name="Page-1">
    <mxGraphModel dx="1032" dy="484" grid="0" gridSize="10" guides="1" tooltips="1" connect="1" arrows="1" fold="1" page="1" pageScale="1" pageWidth="850" pageHeight="1100" background="#F1FAEE" math="0" shadow="0" extFonts="Permanent Marker^https://fonts.googleapis.com/css?family=Permanent+Marker">
      <root>
        <mxCell id="0" />
        <mxCell id="1" parent="0" />
        <mxCell id="C-vyLk0tnHw3VtMMgP7b-12" value="" style="edgeStyle=entityRelationEdgeStyle;endArrow=ERzeroToMany;startArrow=ERone;endFill=1;startFill=0;labelBackgroundColor=#F1FAEE;strokeColor=#457B9D;fontColor=#1D3557;" parent="1" source="C-vyLk0tnHw3VtMMgP7b-3" target="C-vyLk0tnHw3VtMMgP7b-17" edge="1">
          <mxGeometry width="100" height="100" relative="1" as="geometry">
            <mxPoint x="400" y="180" as="sourcePoint" />
            <mxPoint x="460" y="205" as="targetPoint" />
          </mxGeometry>
        </mxCell>
        <mxCell id="C-vyLk0tnHw3VtMMgP7b-2" value="Orders" style="shape=table;startSize=30;container=1;collapsible=1;childLayout=tableLayout;fixedRows=1;rowLines=0;fontStyle=1;align=center;resizeLast=1;fillColor=#A8DADC;strokeColor=#457B9D;fontColor=#1D3557;" parent="1" vertex="1">
          <mxGeometry x="552" y="91" width="250" height="130" as="geometry" />
        </mxCell>
        <mxCell id="C-vyLk0tnHw3VtMMgP7b-3" value="" style="shape=partialRectangle;collapsible=0;dropTarget=0;pointerEvents=0;fillColor=none;points=[[0,0.5],[1,0.5]];portConstraint=eastwest;top=0;left=0;right=0;bottom=1;strokeColor=#457B9D;fontColor=#1D3557;" parent="C-vyLk0tnHw3VtMMgP7b-2" vertex="1">
          <mxGeometry y="30" width="250" height="30" as="geometry" />
        </mxCell>
        <mxCell id="C-vyLk0tnHw3VtMMgP7b-4" value="PK" style="shape=partialRectangle;overflow=hidden;connectable=0;fillColor=none;top=0;left=0;bottom=0;right=0;fontStyle=1;strokeColor=#457B9D;fontColor=#1D3557;" parent="C-vyLk0tnHw3VtMMgP7b-3" vertex="1">
          <mxGeometry width="30" height="30" as="geometry" />
        </mxCell>
        <mxCell id="C-vyLk0tnHw3VtMMgP7b-5" value="order_id int NOT NULL " style="shape=partialRectangle;overflow=hidden;connectable=0;fillColor=none;top=0;left=0;bottom=0;right=0;align=left;spacingLeft=6;fontStyle=5;strokeColor=#457B9D;fontColor=#1D3557;" parent="C-vyLk0tnHw3VtMMgP7b-3" vertex="1">
          <mxGeometry x="30" width="220" height="30" as="geometry" />
        </mxCell>
        <mxCell id="C-vyLk0tnHw3VtMMgP7b-6" value="" style="shape=partialRectangle;collapsible=0;dropTarget=0;pointerEvents=0;fillColor=none;points=[[0,0.5],[1,0.5]];portConstraint=eastwest;top=0;left=0;right=0;bottom=0;strokeColor=#457B9D;fontColor=#1D3557;" parent="C-vyLk0tnHw3VtMMgP7b-2" vertex="1">
          <mxGeometry y="60" width="250" height="30" as="geometry" />
        </mxCell>
        <mxCell id="C-vyLk0tnHw3VtMMgP7b-7" value="FK1" style="shape=partialRectangle;overflow=hidden;connectable=0;fillColor=none;top=0;left=0;bottom=0;right=0;strokeColor=#457B9D;fontColor=#1D3557;" parent="C-vyLk0tnHw3VtMMgP7b-6" vertex="1">
          <mxGeometry width="30" height="30" as="geometry" />
        </mxCell>
        <mxCell id="C-vyLk0tnHw3VtMMgP7b-8" value="customer_id int NOT NULL" style="shape=partialRectangle;overflow=hidden;connectable=0;fillColor=none;top=0;left=0;bottom=0;right=0;align=left;spacingLeft=6;strokeColor=#457B9D;fontColor=#1D3557;" parent="C-vyLk0tnHw3VtMMgP7b-6" vertex="1">
          <mxGeometry x="30" width="220" height="30" as="geometry" />
        </mxCell>
        <mxCell id="C-vyLk0tnHw3VtMMgP7b-9" value="" style="shape=partialRectangle;collapsible=0;dropTarget=0;pointerEvents=0;fillColor=none;points=[[0,0.5],[1,0.5]];portConstraint=eastwest;top=0;left=0;right=0;bottom=0;strokeColor=#457B9D;fontColor=#1D3557;" parent="C-vyLk0tnHw3VtMMgP7b-2" vertex="1">
          <mxGeometry y="90" width="250" height="30" as="geometry" />
        </mxCell>
        <mxCell id="C-vyLk0tnHw3VtMMgP7b-10" value="" style="shape=partialRectangle;overflow=hidden;connectable=0;fillColor=none;top=0;left=0;bottom=0;right=0;strokeColor=#457B9D;fontColor=#1D3557;" parent="C-vyLk0tnHw3VtMMgP7b-9" vertex="1">
          <mxGeometry width="30" height="30" as="geometry" />
        </mxCell>
        <mxCell id="C-vyLk0tnHw3VtMMgP7b-11" value="order_date date NOT NULL" style="shape=partialRectangle;overflow=hidden;connectable=0;fillColor=none;top=0;left=0;bottom=0;right=0;align=left;spacingLeft=6;strokeColor=#457B9D;fontColor=#1D3557;" parent="C-vyLk0tnHw3VtMMgP7b-9" vertex="1">
          <mxGeometry x="30" width="220" height="30" as="geometry" />
        </mxCell>
        <mxCell id="cXO1Aexf9oaIQPsOqugO-64" style="edgeStyle=orthogonalEdgeStyle;curved=0;rounded=1;sketch=0;orthogonalLoop=1;jettySize=auto;html=1;exitX=0.75;exitY=0;exitDx=0;exitDy=0;fontSize=14;fontColor=#1D3557;strokeColor=#457B9D;fillColor=#A8DADC;" edge="1" parent="1" source="C-vyLk0tnHw3VtMMgP7b-13">
          <mxGeometry relative="1" as="geometry">
            <mxPoint x="720" y="315" as="targetPoint" />
          </mxGeometry>
        </mxCell>
        <mxCell id="C-vyLk0tnHw3VtMMgP7b-13" value="Shipments" style="shape=table;startSize=30;container=1;collapsible=1;childLayout=tableLayout;fixedRows=1;rowLines=0;fontStyle=1;align=center;resizeLast=1;fillColor=#A8DADC;strokeColor=#457B9D;fontColor=#1D3557;" parent="1" vertex="1">
          <mxGeometry x="555" y="302" width="250" height="130" as="geometry" />
        </mxCell>
        <mxCell id="C-vyLk0tnHw3VtMMgP7b-14" value="" style="shape=partialRectangle;collapsible=0;dropTarget=0;pointerEvents=0;fillColor=none;points=[[0,0.5],[1,0.5]];portConstraint=eastwest;top=0;left=0;right=0;bottom=1;strokeColor=#457B9D;fontColor=#1D3557;" parent="C-vyLk0tnHw3VtMMgP7b-13" vertex="1">
          <mxGeometry y="30" width="250" height="30" as="geometry" />
        </mxCell>
        <mxCell id="C-vyLk0tnHw3VtMMgP7b-15" value="PK" style="shape=partialRectangle;overflow=hidden;connectable=0;fillColor=none;top=0;left=0;bottom=0;right=0;fontStyle=1;strokeColor=#457B9D;fontColor=#1D3557;" parent="C-vyLk0tnHw3VtMMgP7b-14" vertex="1">
          <mxGeometry width="30" height="30" as="geometry" />
        </mxCell>
        <mxCell id="C-vyLk0tnHw3VtMMgP7b-16" value="shipment_id int NOT NULL " style="shape=partialRectangle;overflow=hidden;connectable=0;fillColor=none;top=0;left=0;bottom=0;right=0;align=left;spacingLeft=6;fontStyle=5;strokeColor=#457B9D;fontColor=#1D3557;" parent="C-vyLk0tnHw3VtMMgP7b-14" vertex="1">
          <mxGeometry x="30" width="220" height="30" as="geometry" />
        </mxCell>
        <mxCell id="C-vyLk0tnHw3VtMMgP7b-17" value="" style="shape=partialRectangle;collapsible=0;dropTarget=0;pointerEvents=0;fillColor=none;points=[[0,0.5],[1,0.5]];portConstraint=eastwest;top=0;left=0;right=0;bottom=0;strokeColor=#457B9D;fontColor=#1D3557;" parent="C-vyLk0tnHw3VtMMgP7b-13" vertex="1">
          <mxGeometry y="60" width="250" height="30" as="geometry" />
        </mxCell>
        <mxCell id="C-vyLk0tnHw3VtMMgP7b-18" value="FK1" style="shape=partialRectangle;overflow=hidden;connectable=0;fillColor=none;top=0;left=0;bottom=0;right=0;strokeColor=#457B9D;fontColor=#1D3557;" parent="C-vyLk0tnHw3VtMMgP7b-17" vertex="1">
          <mxGeometry width="30" height="30" as="geometry" />
        </mxCell>
        <mxCell id="C-vyLk0tnHw3VtMMgP7b-19" value="order_id int NOT NULL" style="shape=partialRectangle;overflow=hidden;connectable=0;fillColor=none;top=0;left=0;bottom=0;right=0;align=left;spacingLeft=6;strokeColor=#457B9D;fontColor=#1D3557;" parent="C-vyLk0tnHw3VtMMgP7b-17" vertex="1">
          <mxGeometry x="30" width="220" height="30" as="geometry" />
        </mxCell>
        <mxCell id="C-vyLk0tnHw3VtMMgP7b-20" value="" style="shape=partialRectangle;collapsible=0;dropTarget=0;pointerEvents=0;fillColor=none;points=[[0,0.5],[1,0.5]];portConstraint=eastwest;top=0;left=0;right=0;bottom=0;strokeColor=#457B9D;fontColor=#1D3557;" parent="C-vyLk0tnHw3VtMMgP7b-13" vertex="1">
          <mxGeometry y="90" width="250" height="30" as="geometry" />
        </mxCell>
        <mxCell id="C-vyLk0tnHw3VtMMgP7b-21" value="" style="shape=partialRectangle;overflow=hidden;connectable=0;fillColor=none;top=0;left=0;bottom=0;right=0;strokeColor=#457B9D;fontColor=#1D3557;" parent="C-vyLk0tnHw3VtMMgP7b-20" vertex="1">
          <mxGeometry width="30" height="30" as="geometry" />
        </mxCell>
        <mxCell id="C-vyLk0tnHw3VtMMgP7b-22" value="shipment_date date NOT NULL" style="shape=partialRectangle;overflow=hidden;connectable=0;fillColor=none;top=0;left=0;bottom=0;right=0;align=left;spacingLeft=6;strokeColor=#457B9D;fontColor=#1D3557;" parent="C-vyLk0tnHw3VtMMgP7b-20" vertex="1">
          <mxGeometry x="30" width="220" height="30" as="geometry" />
        </mxCell>
        <mxCell id="C-vyLk0tnHw3VtMMgP7b-23" value="Product" style="shape=table;startSize=30;container=1;collapsible=1;childLayout=tableLayout;fixedRows=1;rowLines=0;fontStyle=1;align=center;resizeLast=1;fillColor=#A8DADC;strokeColor=#457B9D;fontColor=#1D3557;fontSize=16;" parent="1" vertex="1">
          <mxGeometry x="58" y="93" width="464" height="860.75" as="geometry" />
        </mxCell>
        <mxCell id="C-vyLk0tnHw3VtMMgP7b-24" value="" style="shape=partialRectangle;collapsible=0;dropTarget=0;pointerEvents=0;fillColor=none;points=[[0,0.5],[1,0.5]];portConstraint=eastwest;top=0;left=0;right=0;bottom=1;strokeColor=#457B9D;fontColor=#1D3557;" parent="C-vyLk0tnHw3VtMMgP7b-23" vertex="1">
          <mxGeometry y="30" width="464" height="30" as="geometry" />
        </mxCell>
        <mxCell id="C-vyLk0tnHw3VtMMgP7b-25" value="PK" style="shape=partialRectangle;overflow=hidden;connectable=0;fillColor=none;top=0;left=0;bottom=0;right=0;fontStyle=1;strokeColor=#457B9D;fontColor=#1D3557;" parent="C-vyLk0tnHw3VtMMgP7b-24" vertex="1">
          <mxGeometry width="30" height="30" as="geometry" />
        </mxCell>
        <mxCell id="C-vyLk0tnHw3VtMMgP7b-26" value="_id  ( UUIDV4) " style="shape=partialRectangle;overflow=hidden;connectable=0;fillColor=none;top=0;left=0;bottom=0;right=0;align=left;spacingLeft=6;fontStyle=1;strokeColor=#457B9D;fontColor=#1D3557;fontSize=14;" parent="C-vyLk0tnHw3VtMMgP7b-24" vertex="1">
          <mxGeometry x="30" width="434" height="30" as="geometry" />
        </mxCell>
        <mxCell id="C-vyLk0tnHw3VtMMgP7b-27" value="" style="shape=partialRectangle;collapsible=0;dropTarget=0;pointerEvents=0;fillColor=none;points=[[0,0.5],[1,0.5]];portConstraint=eastwest;top=0;left=0;right=0;bottom=0;strokeColor=#457B9D;fontColor=#1D3557;" parent="C-vyLk0tnHw3VtMMgP7b-23" vertex="1">
          <mxGeometry y="60" width="464" height="30" as="geometry" />
        </mxCell>
        <mxCell id="C-vyLk0tnHw3VtMMgP7b-28" value="" style="shape=partialRectangle;overflow=hidden;connectable=0;fillColor=none;top=0;left=0;bottom=0;right=0;strokeColor=#457B9D;fontColor=#1D3557;" parent="C-vyLk0tnHw3VtMMgP7b-27" vertex="1">
          <mxGeometry width="30" height="30" as="geometry" />
        </mxCell>
        <mxCell id="C-vyLk0tnHw3VtMMgP7b-29" value="title ( String )" style="shape=partialRectangle;overflow=hidden;connectable=0;fillColor=none;top=0;left=0;bottom=0;right=0;align=left;spacingLeft=6;strokeColor=#457B9D;fontColor=#1D3557;fontSize=14;fontStyle=1;" parent="C-vyLk0tnHw3VtMMgP7b-27" vertex="1">
          <mxGeometry x="30" width="434" height="30" as="geometry" />
        </mxCell>
        <mxCell id="cXO1Aexf9oaIQPsOqugO-40" style="shape=partialRectangle;collapsible=0;dropTarget=0;pointerEvents=0;fillColor=none;points=[[0,0.5],[1,0.5]];portConstraint=eastwest;top=0;left=0;right=0;bottom=0;strokeColor=#457B9D;fontColor=#1D3557;" vertex="1" parent="C-vyLk0tnHw3VtMMgP7b-23">
          <mxGeometry y="90" width="464" height="30" as="geometry" />
        </mxCell>
        <mxCell id="cXO1Aexf9oaIQPsOqugO-41" style="shape=partialRectangle;overflow=hidden;connectable=0;fillColor=none;top=0;left=0;bottom=0;right=0;strokeColor=#457B9D;fontColor=#1D3557;" vertex="1" parent="cXO1Aexf9oaIQPsOqugO-40">
          <mxGeometry width="30" height="30" as="geometry" />
        </mxCell>
        <mxCell id="cXO1Aexf9oaIQPsOqugO-42" value="price  ( Number )" style="shape=partialRectangle;overflow=hidden;connectable=0;fillColor=none;top=0;left=0;bottom=0;right=0;align=left;spacingLeft=6;strokeColor=#457B9D;fontColor=#1D3557;" vertex="1" parent="cXO1Aexf9oaIQPsOqugO-40">
          <mxGeometry x="30" width="434" height="30" as="geometry" />
        </mxCell>
        <mxCell id="cXO1Aexf9oaIQPsOqugO-37" style="shape=partialRectangle;collapsible=0;dropTarget=0;pointerEvents=0;fillColor=none;points=[[0,0.5],[1,0.5]];portConstraint=eastwest;top=0;left=0;right=0;bottom=0;strokeColor=#457B9D;fontColor=#1D3557;" vertex="1" parent="C-vyLk0tnHw3VtMMgP7b-23">
          <mxGeometry y="120" width="464" height="30" as="geometry" />
        </mxCell>
        <mxCell id="cXO1Aexf9oaIQPsOqugO-38" style="shape=partialRectangle;overflow=hidden;connectable=0;fillColor=none;top=0;left=0;bottom=0;right=0;strokeColor=#457B9D;fontColor=#1D3557;" vertex="1" parent="cXO1Aexf9oaIQPsOqugO-37">
          <mxGeometry width="30" height="30" as="geometry" />
        </mxCell>
        <mxCell id="cXO1Aexf9oaIQPsOqugO-39" value="currency  ( String )" style="shape=partialRectangle;overflow=hidden;connectable=0;fillColor=none;top=0;left=0;bottom=0;right=0;align=left;spacingLeft=6;strokeColor=#457B9D;fontColor=#1D3557;" vertex="1" parent="cXO1Aexf9oaIQPsOqugO-37">
          <mxGeometry x="30" width="434" height="30" as="geometry" />
        </mxCell>
        <mxCell id="cXO1Aexf9oaIQPsOqugO-34" style="shape=partialRectangle;collapsible=0;dropTarget=0;pointerEvents=0;fillColor=none;points=[[0,0.5],[1,0.5]];portConstraint=eastwest;top=0;left=0;right=0;bottom=0;strokeColor=#457B9D;fontColor=#1D3557;" vertex="1" parent="C-vyLk0tnHw3VtMMgP7b-23">
          <mxGeometry y="150" width="464" height="30" as="geometry" />
        </mxCell>
        <mxCell id="cXO1Aexf9oaIQPsOqugO-35" style="shape=partialRectangle;overflow=hidden;connectable=0;fillColor=none;top=0;left=0;bottom=0;right=0;strokeColor=#457B9D;fontColor=#1D3557;" vertex="1" parent="cXO1Aexf9oaIQPsOqugO-34">
          <mxGeometry width="30" height="30" as="geometry" />
        </mxCell>
        <mxCell id="cXO1Aexf9oaIQPsOqugO-36" value="description  ( String | Text )" style="shape=partialRectangle;overflow=hidden;connectable=0;fillColor=none;top=0;left=0;bottom=0;right=0;align=left;spacingLeft=6;strokeColor=#457B9D;fontColor=#1D3557;" vertex="1" parent="cXO1Aexf9oaIQPsOqugO-34">
          <mxGeometry x="30" width="434" height="30" as="geometry" />
        </mxCell>
        <mxCell id="cXO1Aexf9oaIQPsOqugO-31" style="shape=partialRectangle;collapsible=0;dropTarget=0;pointerEvents=0;fillColor=none;points=[[0,0.5],[1,0.5]];portConstraint=eastwest;top=0;left=0;right=0;bottom=0;strokeColor=#457B9D;fontColor=#1D3557;" vertex="1" parent="C-vyLk0tnHw3VtMMgP7b-23">
          <mxGeometry y="180" width="464" height="30" as="geometry" />
        </mxCell>
        <mxCell id="cXO1Aexf9oaIQPsOqugO-32" style="shape=partialRectangle;overflow=hidden;connectable=0;fillColor=none;top=0;left=0;bottom=0;right=0;strokeColor=#457B9D;fontColor=#1D3557;" vertex="1" parent="cXO1Aexf9oaIQPsOqugO-31">
          <mxGeometry width="30" height="30" as="geometry" />
        </mxCell>
        <mxCell id="cXO1Aexf9oaIQPsOqugO-33" value="sku  ( String )" style="shape=partialRectangle;overflow=hidden;connectable=0;fillColor=none;top=0;left=0;bottom=0;right=0;align=left;spacingLeft=6;strokeColor=#457B9D;fontColor=#1D3557;" vertex="1" parent="cXO1Aexf9oaIQPsOqugO-31">
          <mxGeometry x="30" width="434" height="30" as="geometry" />
        </mxCell>
        <mxCell id="cXO1Aexf9oaIQPsOqugO-28" style="shape=partialRectangle;collapsible=0;dropTarget=0;pointerEvents=0;fillColor=none;points=[[0,0.5],[1,0.5]];portConstraint=eastwest;top=0;left=0;right=0;bottom=0;strokeColor=#457B9D;fontColor=#1D3557;" vertex="1" parent="C-vyLk0tnHw3VtMMgP7b-23">
          <mxGeometry y="210" width="464" height="30" as="geometry" />
        </mxCell>
        <mxCell id="cXO1Aexf9oaIQPsOqugO-29" style="shape=partialRectangle;overflow=hidden;connectable=0;fillColor=none;top=0;left=0;bottom=0;right=0;strokeColor=#457B9D;fontColor=#1D3557;" vertex="1" parent="cXO1Aexf9oaIQPsOqugO-28">
          <mxGeometry width="30" height="30" as="geometry" />
        </mxCell>
        <mxCell id="cXO1Aexf9oaIQPsOqugO-30" value="stock  ( Number )" style="shape=partialRectangle;overflow=hidden;connectable=0;fillColor=none;top=0;left=0;bottom=0;right=0;align=left;spacingLeft=6;strokeColor=#457B9D;fontColor=#1D3557;" vertex="1" parent="cXO1Aexf9oaIQPsOqugO-28">
          <mxGeometry x="30" width="434" height="30" as="geometry" />
        </mxCell>
        <mxCell id="cXO1Aexf9oaIQPsOqugO-25" style="shape=partialRectangle;collapsible=0;dropTarget=0;pointerEvents=0;fillColor=none;points=[[0,0.5],[1,0.5]];portConstraint=eastwest;top=0;left=0;right=0;bottom=0;strokeColor=#457B9D;fontColor=#1D3557;" vertex="1" parent="C-vyLk0tnHw3VtMMgP7b-23">
          <mxGeometry y="240" width="464" height="30" as="geometry" />
        </mxCell>
        <mxCell id="cXO1Aexf9oaIQPsOqugO-26" style="shape=partialRectangle;overflow=hidden;connectable=0;fillColor=none;top=0;left=0;bottom=0;right=0;strokeColor=#457B9D;fontColor=#1D3557;" vertex="1" parent="cXO1Aexf9oaIQPsOqugO-25">
          <mxGeometry width="30" height="30" as="geometry" />
        </mxCell>
        <mxCell id="cXO1Aexf9oaIQPsOqugO-27" value="variants [ {" style="shape=partialRectangle;overflow=hidden;connectable=0;fillColor=none;top=0;left=0;bottom=0;right=0;align=left;spacingLeft=6;strokeColor=#457B9D;fontColor=#1D3557;" vertex="1" parent="cXO1Aexf9oaIQPsOqugO-25">
          <mxGeometry x="30" width="434" height="30" as="geometry" />
        </mxCell>
        <mxCell id="cXO1Aexf9oaIQPsOqugO-22" style="shape=partialRectangle;collapsible=0;dropTarget=0;pointerEvents=0;fillColor=none;points=[[0,0.5],[1,0.5]];portConstraint=eastwest;top=0;left=0;right=0;bottom=0;strokeColor=#457B9D;fontColor=#1D3557;" vertex="1" parent="C-vyLk0tnHw3VtMMgP7b-23">
          <mxGeometry y="270" width="464" height="30" as="geometry" />
        </mxCell>
        <mxCell id="cXO1Aexf9oaIQPsOqugO-23" style="shape=partialRectangle;overflow=hidden;connectable=0;fillColor=none;top=0;left=0;bottom=0;right=0;strokeColor=#457B9D;fontColor=#1D3557;" vertex="1" parent="cXO1Aexf9oaIQPsOqugO-22">
          <mxGeometry width="30" height="30" as="geometry" />
        </mxCell>
        <mxCell id="cXO1Aexf9oaIQPsOqugO-24" value="        sizes: [ {ObjectId , ref : ProductVariant } ]" style="shape=partialRectangle;overflow=hidden;connectable=0;fillColor=none;top=0;left=0;bottom=0;right=0;align=left;spacingLeft=6;strokeColor=#457B9D;fontColor=#1D3557;" vertex="1" parent="cXO1Aexf9oaIQPsOqugO-22">
          <mxGeometry x="30" width="434" height="30" as="geometry" />
        </mxCell>
        <mxCell id="cXO1Aexf9oaIQPsOqugO-19" style="shape=partialRectangle;collapsible=0;dropTarget=0;pointerEvents=0;fillColor=none;points=[[0,0.5],[1,0.5]];portConstraint=eastwest;top=0;left=0;right=0;bottom=0;strokeColor=#457B9D;fontColor=#1D3557;" vertex="1" parent="C-vyLk0tnHw3VtMMgP7b-23">
          <mxGeometry y="300" width="464" height="30" as="geometry" />
        </mxCell>
        <mxCell id="cXO1Aexf9oaIQPsOqugO-20" style="shape=partialRectangle;overflow=hidden;connectable=0;fillColor=none;top=0;left=0;bottom=0;right=0;strokeColor=#457B9D;fontColor=#1D3557;" vertex="1" parent="cXO1Aexf9oaIQPsOqugO-19">
          <mxGeometry width="30" height="30" as="geometry" />
        </mxCell>
        <mxCell id="cXO1Aexf9oaIQPsOqugO-21" value="        colors : [ { ObjectId , ref : ProductVariant } ]" style="shape=partialRectangle;overflow=hidden;connectable=0;fillColor=none;top=0;left=0;bottom=0;right=0;align=left;spacingLeft=6;strokeColor=#457B9D;fontColor=#1D3557;" vertex="1" parent="cXO1Aexf9oaIQPsOqugO-19">
          <mxGeometry x="30" width="434" height="30" as="geometry" />
        </mxCell>
        <mxCell id="cXO1Aexf9oaIQPsOqugO-16" style="shape=partialRectangle;collapsible=0;dropTarget=0;pointerEvents=0;fillColor=none;points=[[0,0.5],[1,0.5]];portConstraint=eastwest;top=0;left=0;right=0;bottom=0;strokeColor=#457B9D;fontColor=#1D3557;" vertex="1" parent="C-vyLk0tnHw3VtMMgP7b-23">
          <mxGeometry y="330" width="464" height="30" as="geometry" />
        </mxCell>
        <mxCell id="cXO1Aexf9oaIQPsOqugO-17" style="shape=partialRectangle;overflow=hidden;connectable=0;fillColor=none;top=0;left=0;bottom=0;right=0;strokeColor=#457B9D;fontColor=#1D3557;" vertex="1" parent="cXO1Aexf9oaIQPsOqugO-16">
          <mxGeometry width="30" height="30" as="geometry" />
        </mxCell>
        <mxCell id="cXO1Aexf9oaIQPsOqugO-18" value="        materials : [ { ObjectId , ref : ProductVariant } ] " style="shape=partialRectangle;overflow=hidden;connectable=0;fillColor=none;top=0;left=0;bottom=0;right=0;align=left;spacingLeft=6;strokeColor=#457B9D;fontColor=#1D3557;" vertex="1" parent="cXO1Aexf9oaIQPsOqugO-16">
          <mxGeometry x="30" width="434" height="30" as="geometry" />
        </mxCell>
        <mxCell id="cXO1Aexf9oaIQPsOqugO-13" style="shape=partialRectangle;collapsible=0;dropTarget=0;pointerEvents=0;fillColor=none;points=[[0,0.5],[1,0.5]];portConstraint=eastwest;top=0;left=0;right=0;bottom=0;strokeColor=#457B9D;fontColor=#1D3557;" vertex="1" parent="C-vyLk0tnHw3VtMMgP7b-23">
          <mxGeometry y="360" width="464" height="30" as="geometry" />
        </mxCell>
        <mxCell id="cXO1Aexf9oaIQPsOqugO-14" style="shape=partialRectangle;overflow=hidden;connectable=0;fillColor=none;top=0;left=0;bottom=0;right=0;strokeColor=#457B9D;fontColor=#1D3557;" vertex="1" parent="cXO1Aexf9oaIQPsOqugO-13">
          <mxGeometry width="30" height="30" as="geometry" />
        </mxCell>
        <mxCell id="cXO1Aexf9oaIQPsOqugO-15" value="        unique : [ { ObjectId, ref : ProductVariant } ]" style="shape=partialRectangle;overflow=hidden;connectable=0;fillColor=none;top=0;left=0;bottom=0;right=0;align=left;spacingLeft=6;strokeColor=#457B9D;fontColor=#1D3557;" vertex="1" parent="cXO1Aexf9oaIQPsOqugO-13">
          <mxGeometry x="30" width="434" height="30" as="geometry" />
        </mxCell>
        <mxCell id="cXO1Aexf9oaIQPsOqugO-10" style="shape=partialRectangle;collapsible=0;dropTarget=0;pointerEvents=0;fillColor=none;points=[[0,0.5],[1,0.5]];portConstraint=eastwest;top=0;left=0;right=0;bottom=0;strokeColor=#457B9D;fontColor=#1D3557;" vertex="1" parent="C-vyLk0tnHw3VtMMgP7b-23">
          <mxGeometry y="390" width="464" height="30" as="geometry" />
        </mxCell>
        <mxCell id="cXO1Aexf9oaIQPsOqugO-11" style="shape=partialRectangle;overflow=hidden;connectable=0;fillColor=none;top=0;left=0;bottom=0;right=0;strokeColor=#457B9D;fontColor=#1D3557;" vertex="1" parent="cXO1Aexf9oaIQPsOqugO-10">
          <mxGeometry width="30" height="30" as="geometry" />
        </mxCell>
        <mxCell id="cXO1Aexf9oaIQPsOqugO-12" value="        } ]" style="shape=partialRectangle;overflow=hidden;connectable=0;fillColor=none;top=0;left=0;bottom=0;right=0;align=left;spacingLeft=6;strokeColor=#457B9D;fontColor=#1D3557;" vertex="1" parent="cXO1Aexf9oaIQPsOqugO-10">
          <mxGeometry x="30" width="434" height="30" as="geometry" />
        </mxCell>
        <mxCell id="cXO1Aexf9oaIQPsOqugO-7" style="shape=partialRectangle;collapsible=0;dropTarget=0;pointerEvents=0;fillColor=none;points=[[0,0.5],[1,0.5]];portConstraint=eastwest;top=0;left=0;right=0;bottom=0;strokeColor=#457B9D;fontColor=#1D3557;" vertex="1" parent="C-vyLk0tnHw3VtMMgP7b-23">
          <mxGeometry y="420" width="464" height="30" as="geometry" />
        </mxCell>
        <mxCell id="cXO1Aexf9oaIQPsOqugO-8" style="shape=partialRectangle;overflow=hidden;connectable=0;fillColor=none;top=0;left=0;bottom=0;right=0;strokeColor=#457B9D;fontColor=#1D3557;" vertex="1" parent="cXO1Aexf9oaIQPsOqugO-7">
          <mxGeometry width="30" height="30" as="geometry" />
        </mxCell>
        <mxCell id="cXO1Aexf9oaIQPsOqugO-9" value="features ( [  type : String ] )" style="shape=partialRectangle;overflow=hidden;connectable=0;fillColor=none;top=0;left=0;bottom=0;right=0;align=left;spacingLeft=6;strokeColor=#457B9D;fontColor=#1D3557;" vertex="1" parent="cXO1Aexf9oaIQPsOqugO-7">
          <mxGeometry x="30" width="434" height="30" as="geometry" />
        </mxCell>
        <mxCell id="cXO1Aexf9oaIQPsOqugO-4" style="shape=partialRectangle;collapsible=0;dropTarget=0;pointerEvents=0;fillColor=none;points=[[0,0.5],[1,0.5]];portConstraint=eastwest;top=0;left=0;right=0;bottom=0;strokeColor=#457B9D;fontColor=#1D3557;" vertex="1" parent="C-vyLk0tnHw3VtMMgP7b-23">
          <mxGeometry y="450" width="464" height="30" as="geometry" />
        </mxCell>
        <mxCell id="cXO1Aexf9oaIQPsOqugO-5" style="shape=partialRectangle;overflow=hidden;connectable=0;fillColor=none;top=0;left=0;bottom=0;right=0;strokeColor=#457B9D;fontColor=#1D3557;" vertex="1" parent="cXO1Aexf9oaIQPsOqugO-4">
          <mxGeometry width="30" height="30" as="geometry" />
        </mxCell>
        <mxCell id="cXO1Aexf9oaIQPsOqugO-6" value="category  ( ObjectId , ref : Category )" style="shape=partialRectangle;overflow=hidden;connectable=0;fillColor=none;top=0;left=0;bottom=0;right=0;align=left;spacingLeft=6;strokeColor=#457B9D;fontColor=#1D3557;" vertex="1" parent="cXO1Aexf9oaIQPsOqugO-4">
          <mxGeometry x="30" width="434" height="30" as="geometry" />
        </mxCell>
        <mxCell id="cXO1Aexf9oaIQPsOqugO-1" style="shape=partialRectangle;collapsible=0;dropTarget=0;pointerEvents=0;fillColor=none;points=[[0,0.5],[1,0.5]];portConstraint=eastwest;top=0;left=0;right=0;bottom=0;strokeColor=#457B9D;fontColor=#1D3557;" vertex="1" parent="C-vyLk0tnHw3VtMMgP7b-23">
          <mxGeometry y="480" width="464" height="30" as="geometry" />
        </mxCell>
        <mxCell id="cXO1Aexf9oaIQPsOqugO-2" style="shape=partialRectangle;overflow=hidden;connectable=0;fillColor=none;top=0;left=0;bottom=0;right=0;strokeColor=#457B9D;fontColor=#1D3557;" vertex="1" parent="cXO1Aexf9oaIQPsOqugO-1">
          <mxGeometry width="30" height="30" as="geometry" />
        </mxCell>
        <mxCell id="cXO1Aexf9oaIQPsOqugO-3" value="subs ( ObjectId,  ref : SubCategory )" style="shape=partialRectangle;overflow=hidden;connectable=0;fillColor=none;top=0;left=0;bottom=0;right=0;align=left;spacingLeft=6;strokeColor=#457B9D;fontColor=#1D3557;" vertex="1" parent="cXO1Aexf9oaIQPsOqugO-1">
          <mxGeometry x="30" width="434" height="30" as="geometry" />
        </mxCell>
        <mxCell id="cXO1Aexf9oaIQPsOqugO-52" style="shape=partialRectangle;collapsible=0;dropTarget=0;pointerEvents=0;fillColor=none;points=[[0,0.5],[1,0.5]];portConstraint=eastwest;top=0;left=0;right=0;bottom=0;strokeColor=#457B9D;fontColor=#1D3557;" vertex="1" parent="C-vyLk0tnHw3VtMMgP7b-23">
          <mxGeometry y="510" width="464" height="30" as="geometry" />
        </mxCell>
        <mxCell id="cXO1Aexf9oaIQPsOqugO-53" style="shape=partialRectangle;overflow=hidden;connectable=0;fillColor=none;top=0;left=0;bottom=0;right=0;strokeColor=#457B9D;fontColor=#1D3557;" vertex="1" parent="cXO1Aexf9oaIQPsOqugO-52">
          <mxGeometry width="30" height="30" as="geometry" />
        </mxCell>
        <mxCell id="cXO1Aexf9oaIQPsOqugO-54" value="mainImage  (string | url )" style="shape=partialRectangle;overflow=hidden;connectable=0;fillColor=none;top=0;left=0;bottom=0;right=0;align=left;spacingLeft=6;strokeColor=#457B9D;fontColor=#1D3557;" vertex="1" parent="cXO1Aexf9oaIQPsOqugO-52">
          <mxGeometry x="30" width="434" height="30" as="geometry" />
        </mxCell>
        <mxCell id="cXO1Aexf9oaIQPsOqugO-49" style="shape=partialRectangle;collapsible=0;dropTarget=0;pointerEvents=0;fillColor=none;points=[[0,0.5],[1,0.5]];portConstraint=eastwest;top=0;left=0;right=0;bottom=0;strokeColor=#457B9D;fontColor=#1D3557;" vertex="1" parent="C-vyLk0tnHw3VtMMgP7b-23">
          <mxGeometry y="540" width="464" height="30" as="geometry" />
        </mxCell>
        <mxCell id="cXO1Aexf9oaIQPsOqugO-50" style="shape=partialRectangle;overflow=hidden;connectable=0;fillColor=none;top=0;left=0;bottom=0;right=0;strokeColor=#457B9D;fontColor=#1D3557;" vertex="1" parent="cXO1Aexf9oaIQPsOqugO-49">
          <mxGeometry width="30" height="30" as="geometry" />
        </mxCell>
        <mxCell id="cXO1Aexf9oaIQPsOqugO-51" value="vendor ( ObjectId, ref : Vendor )" style="shape=partialRectangle;overflow=hidden;connectable=0;fillColor=none;top=0;left=0;bottom=0;right=0;align=left;spacingLeft=6;strokeColor=#457B9D;fontColor=#1D3557;" vertex="1" parent="cXO1Aexf9oaIQPsOqugO-49">
          <mxGeometry x="30" width="434" height="30" as="geometry" />
        </mxCell>
        <mxCell id="cXO1Aexf9oaIQPsOqugO-46" style="shape=partialRectangle;collapsible=0;dropTarget=0;pointerEvents=0;fillColor=none;points=[[0,0.5],[1,0.5]];portConstraint=eastwest;top=0;left=0;right=0;bottom=0;strokeColor=#457B9D;fontColor=#1D3557;" vertex="1" parent="C-vyLk0tnHw3VtMMgP7b-23">
          <mxGeometry y="570" width="464" height="30" as="geometry" />
        </mxCell>
        <mxCell id="cXO1Aexf9oaIQPsOqugO-47" style="shape=partialRectangle;overflow=hidden;connectable=0;fillColor=none;top=0;left=0;bottom=0;right=0;strokeColor=#457B9D;fontColor=#1D3557;" vertex="1" parent="cXO1Aexf9oaIQPsOqugO-46">
          <mxGeometry width="30" height="30" as="geometry" />
        </mxCell>
        <mxCell id="cXO1Aexf9oaIQPsOqugO-48" value="link ( String  | Url )" style="shape=partialRectangle;overflow=hidden;connectable=0;fillColor=none;top=0;left=0;bottom=0;right=0;align=left;spacingLeft=6;strokeColor=#457B9D;fontColor=#1D3557;" vertex="1" parent="cXO1Aexf9oaIQPsOqugO-46">
          <mxGeometry x="30" width="434" height="30" as="geometry" />
        </mxCell>
        <mxCell id="cXO1Aexf9oaIQPsOqugO-43" style="shape=partialRectangle;collapsible=0;dropTarget=0;pointerEvents=0;fillColor=none;points=[[0,0.5],[1,0.5]];portConstraint=eastwest;top=0;left=0;right=0;bottom=0;strokeColor=#457B9D;fontColor=#1D3557;" vertex="1" parent="C-vyLk0tnHw3VtMMgP7b-23">
          <mxGeometry y="600" width="464" height="26" as="geometry" />
        </mxCell>
        <mxCell id="cXO1Aexf9oaIQPsOqugO-44" style="shape=partialRectangle;overflow=hidden;connectable=0;fillColor=none;top=0;left=0;bottom=0;right=0;strokeColor=#457B9D;fontColor=#1D3557;" vertex="1" parent="cXO1Aexf9oaIQPsOqugO-43">
          <mxGeometry width="30" height="26" as="geometry" />
        </mxCell>
        <mxCell id="cXO1Aexf9oaIQPsOqugO-45" value="images [  { type: String }  ]" style="shape=partialRectangle;overflow=hidden;connectable=0;fillColor=none;top=0;left=0;bottom=0;right=0;align=left;spacingLeft=6;strokeColor=#457B9D;fontColor=#1D3557;" vertex="1" parent="cXO1Aexf9oaIQPsOqugO-43">
          <mxGeometry x="30" width="434" height="26" as="geometry" />
        </mxCell>
        <mxCell id="cXO1Aexf9oaIQPsOqugO-61" style="shape=partialRectangle;collapsible=0;dropTarget=0;pointerEvents=0;fillColor=none;points=[[0,0.5],[1,0.5]];portConstraint=eastwest;top=0;left=0;right=0;bottom=0;strokeColor=#457B9D;fontColor=#1D3557;" vertex="1" parent="C-vyLk0tnHw3VtMMgP7b-23">
          <mxGeometry y="626" width="464" height="26" as="geometry" />
        </mxCell>
        <mxCell id="cXO1Aexf9oaIQPsOqugO-62" style="shape=partialRectangle;overflow=hidden;connectable=0;fillColor=none;top=0;left=0;bottom=0;right=0;strokeColor=#457B9D;fontColor=#1D3557;" vertex="1" parent="cXO1Aexf9oaIQPsOqugO-61">
          <mxGeometry width="30" height="26" as="geometry" />
        </mxCell>
        <mxCell id="cXO1Aexf9oaIQPsOqugO-63" value="availability ( enum : [ &#39;in stock&#39;, &#39;out of stock&#39;, &#39;pre-order&#39;, &#39;backorder&#39; ] )" style="shape=partialRectangle;overflow=hidden;connectable=0;fillColor=none;top=0;left=0;bottom=0;right=0;align=left;spacingLeft=6;strokeColor=#457B9D;fontColor=#1D3557;" vertex="1" parent="cXO1Aexf9oaIQPsOqugO-61">
          <mxGeometry x="30" width="434" height="26" as="geometry" />
        </mxCell>
        <mxCell id="cXO1Aexf9oaIQPsOqugO-58" style="shape=partialRectangle;collapsible=0;dropTarget=0;pointerEvents=0;fillColor=none;points=[[0,0.5],[1,0.5]];portConstraint=eastwest;top=0;left=0;right=0;bottom=0;strokeColor=#457B9D;fontColor=#1D3557;" vertex="1" parent="C-vyLk0tnHw3VtMMgP7b-23">
          <mxGeometry y="652" width="464" height="26" as="geometry" />
        </mxCell>
        <mxCell id="cXO1Aexf9oaIQPsOqugO-59" style="shape=partialRectangle;overflow=hidden;connectable=0;fillColor=none;top=0;left=0;bottom=0;right=0;strokeColor=#457B9D;fontColor=#1D3557;" vertex="1" parent="cXO1Aexf9oaIQPsOqugO-58">
          <mxGeometry width="30" height="26" as="geometry" />
        </mxCell>
        <mxCell id="cXO1Aexf9oaIQPsOqugO-60" value="availability_date  ( Date )" style="shape=partialRectangle;overflow=hidden;connectable=0;fillColor=none;top=0;left=0;bottom=0;right=0;align=left;spacingLeft=6;strokeColor=#457B9D;fontColor=#1D3557;" vertex="1" parent="cXO1Aexf9oaIQPsOqugO-58">
          <mxGeometry x="30" width="434" height="26" as="geometry" />
        </mxCell>
        <mxCell id="cXO1Aexf9oaIQPsOqugO-55" style="shape=partialRectangle;collapsible=0;dropTarget=0;pointerEvents=0;fillColor=none;points=[[0,0.5],[1,0.5]];portConstraint=eastwest;top=0;left=0;right=0;bottom=0;strokeColor=#457B9D;fontColor=#1D3557;" vertex="1" parent="C-vyLk0tnHw3VtMMgP7b-23">
          <mxGeometry y="678" width="464" height="26" as="geometry" />
        </mxCell>
        <mxCell id="cXO1Aexf9oaIQPsOqugO-56" style="shape=partialRectangle;overflow=hidden;connectable=0;fillColor=none;top=0;left=0;bottom=0;right=0;strokeColor=#457B9D;fontColor=#1D3557;" vertex="1" parent="cXO1Aexf9oaIQPsOqugO-55">
          <mxGeometry width="30" height="26" as="geometry" />
        </mxCell>
        <mxCell id="cXO1Aexf9oaIQPsOqugO-57" value="sale  {" style="shape=partialRectangle;overflow=hidden;connectable=0;fillColor=none;top=0;left=0;bottom=0;right=0;align=left;spacingLeft=6;strokeColor=#457B9D;fontColor=#1D3557;" vertex="1" parent="cXO1Aexf9oaIQPsOqugO-55">
          <mxGeometry x="30" width="434" height="26" as="geometry" />
        </mxCell>
        <mxCell id="cXO1Aexf9oaIQPsOqugO-71" style="shape=partialRectangle;collapsible=0;dropTarget=0;pointerEvents=0;fillColor=none;points=[[0,0.5],[1,0.5]];portConstraint=eastwest;top=0;left=0;right=0;bottom=0;strokeColor=#457B9D;fontColor=#1D3557;" vertex="1" parent="C-vyLk0tnHw3VtMMgP7b-23">
          <mxGeometry y="704" width="464" height="26" as="geometry" />
        </mxCell>
        <mxCell id="cXO1Aexf9oaIQPsOqugO-72" style="shape=partialRectangle;overflow=hidden;connectable=0;fillColor=none;top=0;left=0;bottom=0;right=0;strokeColor=#457B9D;fontColor=#1D3557;" vertex="1" parent="cXO1Aexf9oaIQPsOqugO-71">
          <mxGeometry width="30" height="26" as="geometry" />
        </mxCell>
        <mxCell id="cXO1Aexf9oaIQPsOqugO-73" value="        onSale ( Boolean)" style="shape=partialRectangle;overflow=hidden;connectable=0;fillColor=none;top=0;left=0;bottom=0;right=0;align=left;spacingLeft=6;strokeColor=#457B9D;fontColor=#1D3557;" vertex="1" parent="cXO1Aexf9oaIQPsOqugO-71">
          <mxGeometry x="30" width="434" height="26" as="geometry" />
        </mxCell>
        <mxCell id="cXO1Aexf9oaIQPsOqugO-68" style="shape=partialRectangle;collapsible=0;dropTarget=0;pointerEvents=0;fillColor=none;points=[[0,0.5],[1,0.5]];portConstraint=eastwest;top=0;left=0;right=0;bottom=0;strokeColor=#457B9D;fontColor=#1D3557;" vertex="1" parent="C-vyLk0tnHw3VtMMgP7b-23">
          <mxGeometry y="730" width="464" height="26" as="geometry" />
        </mxCell>
        <mxCell id="cXO1Aexf9oaIQPsOqugO-69" style="shape=partialRectangle;overflow=hidden;connectable=0;fillColor=none;top=0;left=0;bottom=0;right=0;strokeColor=#457B9D;fontColor=#1D3557;" vertex="1" parent="cXO1Aexf9oaIQPsOqugO-68">
          <mxGeometry width="30" height="26" as="geometry" />
        </mxCell>
        <mxCell id="cXO1Aexf9oaIQPsOqugO-70" value="        saleAmount ( Number )" style="shape=partialRectangle;overflow=hidden;connectable=0;fillColor=none;top=0;left=0;bottom=0;right=0;align=left;spacingLeft=6;strokeColor=#457B9D;fontColor=#1D3557;" vertex="1" parent="cXO1Aexf9oaIQPsOqugO-68">
          <mxGeometry x="30" width="434" height="26" as="geometry" />
        </mxCell>
        <mxCell id="cXO1Aexf9oaIQPsOqugO-65" style="shape=partialRectangle;collapsible=0;dropTarget=0;pointerEvents=0;fillColor=none;points=[[0,0.5],[1,0.5]];portConstraint=eastwest;top=0;left=0;right=0;bottom=0;strokeColor=#457B9D;fontColor=#1D3557;" vertex="1" parent="C-vyLk0tnHw3VtMMgP7b-23">
          <mxGeometry y="756" width="464" height="26" as="geometry" />
        </mxCell>
        <mxCell id="cXO1Aexf9oaIQPsOqugO-66" style="shape=partialRectangle;overflow=hidden;connectable=0;fillColor=none;top=0;left=0;bottom=0;right=0;strokeColor=#457B9D;fontColor=#1D3557;" vertex="1" parent="cXO1Aexf9oaIQPsOqugO-65">
          <mxGeometry width="30" height="26" as="geometry" />
        </mxCell>
        <mxCell id="cXO1Aexf9oaIQPsOqugO-67" value="        expiry  ( Date )    }" style="shape=partialRectangle;overflow=hidden;connectable=0;fillColor=none;top=0;left=0;bottom=0;right=0;align=left;spacingLeft=6;strokeColor=#457B9D;fontColor=#1D3557;" vertex="1" parent="cXO1Aexf9oaIQPsOqugO-65">
          <mxGeometry x="30" width="434" height="26" as="geometry" />
        </mxCell>
        <mxCell id="cXO1Aexf9oaIQPsOqugO-80" style="shape=partialRectangle;collapsible=0;dropTarget=0;pointerEvents=0;fillColor=none;points=[[0,0.5],[1,0.5]];portConstraint=eastwest;top=0;left=0;right=0;bottom=0;strokeColor=#457B9D;fontColor=#1D3557;" vertex="1" parent="C-vyLk0tnHw3VtMMgP7b-23">
          <mxGeometry y="782" width="464" height="26" as="geometry" />
        </mxCell>
        <mxCell id="cXO1Aexf9oaIQPsOqugO-81" style="shape=partialRectangle;overflow=hidden;connectable=0;fillColor=none;top=0;left=0;bottom=0;right=0;strokeColor=#457B9D;fontColor=#1D3557;" vertex="1" parent="cXO1Aexf9oaIQPsOqugO-80">
          <mxGeometry width="30" height="26" as="geometry" />
        </mxCell>
        <mxCell id="cXO1Aexf9oaIQPsOqugO-82" value="mesures [ {   " style="shape=partialRectangle;overflow=hidden;connectable=0;fillColor=none;top=0;left=0;bottom=0;right=0;align=left;spacingLeft=6;strokeColor=#457B9D;fontColor=#1D3557;" vertex="1" parent="cXO1Aexf9oaIQPsOqugO-80">
          <mxGeometry x="30" width="434" height="26" as="geometry" />
        </mxCell>
        <mxCell id="cXO1Aexf9oaIQPsOqugO-77" style="shape=partialRectangle;collapsible=0;dropTarget=0;pointerEvents=0;fillColor=none;points=[[0,0.5],[1,0.5]];portConstraint=eastwest;top=0;left=0;right=0;bottom=0;strokeColor=#457B9D;fontColor=#1D3557;" vertex="1" parent="C-vyLk0tnHw3VtMMgP7b-23">
          <mxGeometry y="808" width="464" height="26" as="geometry" />
        </mxCell>
        <mxCell id="cXO1Aexf9oaIQPsOqugO-78" style="shape=partialRectangle;overflow=hidden;connectable=0;fillColor=none;top=0;left=0;bottom=0;right=0;strokeColor=#457B9D;fontColor=#1D3557;" vertex="1" parent="cXO1Aexf9oaIQPsOqugO-77">
          <mxGeometry width="30" height="26" as="geometry" />
        </mxCell>
        <mxCell id="cXO1Aexf9oaIQPsOqugO-79" value="        length [ { name: String , value: Number , unit : String } ]" style="shape=partialRectangle;overflow=hidden;connectable=0;fillColor=none;top=0;left=0;bottom=0;right=0;align=left;spacingLeft=6;strokeColor=#457B9D;fontColor=#1D3557;" vertex="1" parent="cXO1Aexf9oaIQPsOqugO-77">
          <mxGeometry x="30" width="434" height="26" as="geometry" />
        </mxCell>
        <mxCell id="cXO1Aexf9oaIQPsOqugO-74" style="shape=partialRectangle;collapsible=0;dropTarget=0;pointerEvents=0;fillColor=none;points=[[0,0.5],[1,0.5]];portConstraint=eastwest;top=0;left=0;right=0;bottom=0;strokeColor=#457B9D;fontColor=#1D3557;" vertex="1" parent="C-vyLk0tnHw3VtMMgP7b-23">
          <mxGeometry y="834" width="464" height="26" as="geometry" />
        </mxCell>
        <mxCell id="cXO1Aexf9oaIQPsOqugO-75" style="shape=partialRectangle;overflow=hidden;connectable=0;fillColor=none;top=0;left=0;bottom=0;right=0;strokeColor=#457B9D;fontColor=#1D3557;" vertex="1" parent="cXO1Aexf9oaIQPsOqugO-74">
          <mxGeometry width="30" height="26" as="geometry" />
        </mxCell>
        <mxCell id="cXO1Aexf9oaIQPsOqugO-76" value="        weigth [{ name: String , value: Number , unit : String } ]" style="shape=partialRectangle;overflow=hidden;connectable=0;fillColor=none;top=0;left=0;bottom=0;right=0;align=left;spacingLeft=6;strokeColor=#457B9D;fontColor=#1D3557;" vertex="1" parent="cXO1Aexf9oaIQPsOqugO-74">
          <mxGeometry x="30" width="434" height="26" as="geometry" />
        </mxCell>
      </root>
    </mxGraphModel>
  </diagram>
</mxfile>
